<?xml version="1.0" standalone="no"?>
<!DOCTYPE svg PUBLIC "-//W3C//DTD SVG 20010904//EN"
 "http://www.w3.org/TR/2001/REC-SVG-20010904/DTD/svg10.dtd">
<svg version="1.0" xmlns="http://www.w3.org/2000/svg"
 width="300.000000pt" height="300.000000pt" viewBox="0 0 300.000000 300.000000"
 preserveAspectRatio="xMidYMid meet">
<metadata>
Created by potrace 1.11, written by Peter Selinger 2001-2013
</metadata>
<g transform="translate(0.000000,300.000000) scale(0.100000,-0.100000)"
fill="#000000" stroke="none">
<path d="M2817 2674 c-1 -1 -65 -5 -142 -8 -304 -14 -361 -25 -463 -90 -80
-50 -100 -81 -152 -236 -27 -80 -53 -158 -60 -174 l-11 -30 -13 25 c-134 255
-143 267 -207 271 -35 3 -24 8 -689 -322 -464 -230 -580 -271 -750 -265 -52 2
-104 6 -115 9 -11 3 -36 9 -55 14 -19 5 -54 19 -77 30 -42 22 -83 29 -83 15 1
-21 34 -44 120 -86 120 -59 223 -92 348 -114 52 -9 231 -6 267 5 23 6 38 3 71
-15 140 -79 315 -99 446 -53 l67 23 63 -28 c48 -22 78 -28 128 -29 36 0 72 2
80 5 37 12 119 56 183 101 39 26 74 48 79 48 4 0 1 -17 -7 -37 -8 -21 -53
-146 -100 -278 -48 -132 -105 -289 -127 -350 -23 -60 -47 -128 -55 -150 -26
-75 -121 -263 -164 -326 -45 -67 -126 -153 -199 -211 -83 -66 -319 -189 -389
-203 -41 -8 -92 -36 -88 -47 6 -18 66 -12 147 13 97 31 182 59 205 68 11 5 67
28 125 51 389 159 638 334 784 555 87 130 132 234 219 510 39 124 206 593 330
930 110 300 129 316 392 340 53 5 83 20 69 35 -5 4 -172 8 -177 4z m-927 -429
c13 -14 22 -26 19 -28 -27 -20 -403 -237 -539 -310 -30 -16 -59 -33 -65 -37
-16 -12 -186 -97 -230 -115 -47 -20 -190 -31 -224 -18 -22 9 -19 11 35 31 33
12 103 46 156 75 110 59 427 231 475 258 165 92 317 167 344 169 3 0 16 -11
29 -25z m47 -256 l-22 -60 -153 -95 c-184 -114 -253 -150 -309 -159 -68 -11
-135 12 -85 29 9 3 29 14 44 23 14 10 73 47 130 82 56 35 138 86 181 113 43
26 79 48 81 48 2 0 33 18 67 39 35 22 69 40 76 40 8 1 4 -19 -10 -60z"/>
</g>
</svg>
